<?xml version="1.0" encoding="UTF-8" standalone="no"?>
<!-- Created with Inkscape (http://www.inkscape.org/) -->

<svg
   width="150"
   height="100"
   viewBox="0 0 150 100"
   version="1.1"
   id="svg1"
   inkscape:version="1.4.1 (93de688d07, 2025-03-30)"
   sodipodi:docname="logo.svg"
   xmlns:inkscape="http://www.inkscape.org/namespaces/inkscape"
   xmlns:sodipodi="http://sodipodi.sourceforge.net/DTD/sodipodi-0.dtd"
   xmlns="http://www.w3.org/2000/svg"
   xmlns:svg="http://www.w3.org/2000/svg">
  <sodipodi:namedview
     id="namedview1"
     pagecolor="#ffffff"
     bordercolor="#999999"
     borderopacity="1"
     inkscape:showpageshadow="2"
     inkscape:pageopacity="0"
     inkscape:pagecheckerboard="0"
     inkscape:deskcolor="#d1d1d1"
     inkscape:document-units="px"
     inkscape:zoom="4"
     inkscape:cx="70.374999"
     inkscape:cy="52"
     inkscape:window-width="1506"
     inkscape:window-height="1065"
     inkscape:window-x="0"
     inkscape:window-y="0"
     inkscape:window-maximized="0"
     inkscape:current-layer="layer1" />
  <defs
     id="defs1">
    <inkscape:path-effect
       effect="fillet_chamfer"
       id="path-effect6"
       is_visible="true"
       lpeversion="1"
       nodesatellites_param="F,0,0,1,0,1.7577775,0,1 @ F,0,0,1,0,1.4444444,0,1 @ F,0,0,1,0,1.4444444,0,1 @ F,0,0,1,0,1.4444444,0,1"
       radius="1.4444444"
       unit="px"
       method="auto"
       mode="F"
       chamfer_steps="1"
       flexible="false"
       use_knot_distance="true"
       apply_no_radius="true"
       apply_with_radius="true"
       only_selected="false"
       hide_knots="false" />
    <inkscape:path-effect
       effect="fillet_chamfer"
       id="path-effect1"
       is_visible="true"
       lpeversion="1"
       nodesatellites_param="F,0,0,1,0,0,0,1 @ F,0,0,1,0,0,0,1 @ F,0,0,1,0,0,0,1 @ F,0,0,1,0,0,0,1 @ F,0,0,1,0,0,0,1 @ F,0,0,1,0,0,0,1 @ F,0,0,1,0,0,0,1 @ F,0,0,1,0,0,0,1"
       radius="0"
       unit="px"
       method="auto"
       mode="F"
       chamfer_steps="1"
       flexible="false"
       use_knot_distance="true"
       apply_no_radius="true"
       apply_with_radius="true"
       only_selected="false"
       hide_knots="false" />
    <filter
       style="color-interpolation-filters:sRGB;"
       inkscape:label="Drop Shadow"
       id="filter6"
       x="-0.051795069"
       y="-0.085704727"
       width="1.1035901"
       height="1.1714095">
      <feFlood
         result="flood"
         in="SourceGraphic"
         flood-opacity="0.498039"
         flood-color="rgb(0,0,0)"
         id="feFlood5" />
      <feGaussianBlur
         result="blur"
         in="SourceGraphic"
         stdDeviation="3.000000"
         id="feGaussianBlur5" />
      <feOffset
         result="offset"
         in="blur"
         dx="0.000000"
         dy="0.000000"
         id="feOffset5" />
      <feComposite
         result="comp1"
         operator="in"
         in="flood"
         in2="offset"
         id="feComposite5" />
      <feComposite
         result="comp2"
         operator="over"
         in="SourceGraphic"
         in2="comp1"
         id="feComposite6" />
    </filter>
  </defs>
  <g
     inkscape:label="Layer 1"
     inkscape:groupmode="layer"
     id="layer1">
    <path
       style="fill:#5088c2;fill-opacity:1;stroke:none;stroke-width:0.990632;stroke-linecap:round;stroke-linejoin:round;paint-order:markers fill stroke;filter:url(#filter6)"
       id="rect1"
       width="139.00937"
       height="84.009369"
       x="5.4953184"
       y="7.9953156"
       inkscape:path-effect="#path-effect1"
       sodipodi:type="rect"
       d="M 10.866222,7.9953156 H 139.13378 c 2.97548,0 5.37091,2.3954234 5.37091,5.3709034 v 73.267562 c 0,2.97548 -2.39543,5.370903 -5.37091,5.370903 H 10.866222 c -2.9754806,0 -5.3709036,-2.395423 -5.3709036,-5.370903 V 13.366219 c 0,-2.97548 2.395423,-5.3709034 5.3709036,-5.3709034 z"
       ry="5.3709035"
       inkscape:label="background" />
    <path
       id="rect2"
       style="opacity:0.8;fill:#ffffff;fill-opacity:1;stroke:none;stroke-width:1.02073;stroke-linecap:round;stroke-linejoin:round;paint-order:markers fill stroke"
       d="m 28.999999,13.706055 c -4.580075,1.1e-5 -8.292957,3.712893 -8.292969,8.292968 0.0067,2.127007 0.830353,4.170137 2.300781,5.707031 v 44.587892 c -1.469964,1.536405 -2.293613,3.578746 -2.300781,5.705077 -0.0011,4.580839 3.71213,8.294912 8.292969,8.294923 4.580838,-1.2e-5 8.294036,-3.714085 8.292968,-8.294923 -0.0015,-2.126199 -0.819502,-4.170619 -2.285156,-5.710938 v -15.8125 L 52.431639,39.051757 h 7.783203 c 1.535672,1.465256 3.574717,2.285907 5.697266,2.292969 4.580076,-1.1e-5 8.292958,-3.712893 8.292969,-8.292969 -1.2e-5,-4.580075 -3.712894,-8.292957 -8.292969,-8.292968 -2.122548,0.0071 -4.161594,0.827712 -5.697266,2.292968 h -12.21875 c -0.01436,0.0027 -0.02869,0.006 -0.04297,0.0098 -0.33385,0.02408 -0.661628,0.157715 -0.917968,0.414062 l -12.027343,12.02731 v -11.8125 c 1.461014,-1.535423 2.278705,-3.571962 2.285156,-5.691406 -1.2e-5,-4.580075 -3.712893,-8.292956 -8.292968,-8.292968 z m 60,0 c -4.580075,1.1e-5 -8.292957,3.712893 -8.292969,8.292968 0.0067,2.127007 0.830353,4.170137 2.300781,5.707031 v 44.587892 c -1.469964,1.536405 -2.293613,3.578746 -2.300781,5.705077 -0.0011,4.580839 3.71213,8.294912 8.292969,8.294923 4.580838,-1.2e-5 8.294036,-3.714085 8.292968,-8.294923 -0.0015,-2.126199 -0.819502,-4.170619 -2.285156,-5.710938 V 60.713867 l 8.480469,8.478516 0.0117,-0.01172 9.23633,9.236327 c 0.22128,4.405551 3.8526,7.866925 8.26369,7.876956 4.58084,-1.1e-5 8.29404,-3.714084 8.29297,-8.294923 -1e-5,-4.580076 -3.71289,-8.292958 -8.29297,-8.292969 h -0.006 l -9.00977,-9.009765 8.44336,-8.44336 c 0.19027,0.02027 0.38119,0.03395 0.57241,0.04102 4.58084,-1.1e-5 8.29404,-3.714083 8.29297,-8.294922 -1e-5,-4.580076 -3.71289,-8.292958 -8.29297,-8.292969 -4.16243,0.0032 -7.67762,3.091391 -8.2168,7.21875 l -9.28516,9.285156 -8.490229,-8.490234 V 27.690429 c 1.461014,-1.535423 2.278705,-3.571962 2.285156,-5.691406 -1.2e-5,-4.580075 -3.712893,-8.292956 -8.292968,-8.292968 z m -60,2.765624 c 3.053129,-3.51e-4 5.528569,2.474215 5.529296,5.527344 3.52e-4,3.053892 -2.475404,5.529648 -5.529296,5.529297 -3.053892,3.52e-4 -5.529649,-2.475405 -5.529297,-5.529297 7.27e-4,-3.053129 2.476167,-5.527696 5.529297,-5.527344 z m 60,0 c 3.053129,-3.51e-4 5.528569,2.474215 5.529296,5.527344 3.52e-4,3.053892 -2.475404,5.529648 -5.529296,5.529297 -3.053892,3.52e-4 -5.529649,-2.475405 -5.529297,-5.529297 7.27e-4,-3.053129 2.476167,-5.527696 5.529297,-5.527344 z M 65.912108,27.52246 c 3.053892,-3.52e-4 5.529649,2.475405 5.529297,5.529297 3.52e-4,3.053892 -2.475405,5.529649 -5.529297,5.529297 -3.053129,-7.27e-4 -5.527696,-2.476167 -5.527344,-5.529297 -3.52e-4,-3.05313 2.474215,-5.52857 5.527344,-5.529297 z M 121,38.471679 c 3.05313,-3.48e-4 5.52856,2.474217 5.52929,5.527344 3.5e-4,3.053889 -2.4754,5.529645 -5.52929,5.529297 -3.05389,3.54e-4 -5.52965,-2.475404 -5.5293,-5.529297 7.3e-4,-3.053131 2.47617,-5.527698 5.5293,-5.527344 z m -25.992189,22.21875 0.0059,0.0059 -0.0059,0.0059 z m -66.007812,11.78125 c 3.053129,-3.51e-4 5.528569,2.474215 5.529296,5.527344 3.52e-4,3.053892 -2.475404,5.529648 -5.529296,5.529297 -3.053892,3.52e-4 -5.529649,-2.475405 -5.529297,-5.529297 7.27e-4,-3.053129 2.476167,-5.527696 5.529297,-5.527344 z m 60,0 c 3.053129,-3.51e-4 5.528569,2.474215 5.529296,5.527344 3.52e-4,3.053892 -2.475404,5.529648 -5.529296,5.529297 -3.053892,3.52e-4 -5.529649,-2.475405 -5.529297,-5.529297 7.27e-4,-3.053129 2.476167,-5.527696 5.529297,-5.527344 z m 32.000001,0 c 3.05313,-3.48e-4 5.52856,2.474217 5.52929,5.527344 3.5e-4,3.053889 -2.4754,5.529645 -5.52929,5.529297 -3.05389,3.54e-4 -5.52965,-2.475404 -5.5293,-5.529297 7.3e-4,-3.053131 2.47617,-5.527698 5.5293,-5.527344 z"
       sodipodi:nodetypes="cccccccccccccccccccccccccccsccccccccsccccccccccccccccccccccccccccccccccccccccccccccccccc"
       inkscape:label="logo" />
  </g>
</svg>
