<?xml version="1.0" encoding="UTF-8" standalone="no"?>
<!-- Created with Inkscape (http://www.inkscape.org/) -->

<svg
   width="150"
   height="100"
   viewBox="0 0 150 100"
   version="1.1"
   id="svg1"
   inkscape:version="1.3 (0e150ed6c4, 2023-07-21)"
   sodipodi:docname="logo.svg"
   xmlns:inkscape="http://www.inkscape.org/namespaces/inkscape"
   xmlns:sodipodi="http://sodipodi.sourceforge.net/DTD/sodipodi-0.dtd"
   xmlns="http://www.w3.org/2000/svg"
   xmlns:svg="http://www.w3.org/2000/svg">
  <sodipodi:namedview
     id="namedview1"
     pagecolor="#ffffff"
     bordercolor="#999999"
     borderopacity="1"
     inkscape:showpageshadow="2"
     inkscape:pageopacity="0"
     inkscape:pagecheckerboard="0"
     inkscape:deskcolor="#d1d1d1"
     inkscape:document-units="px"
     inkscape:zoom="5.6568543"
     inkscape:cx="81.670833"
     inkscape:cy="46.845824"
     inkscape:window-width="1920"
     inkscape:window-height="1056"
     inkscape:window-x="0"
     inkscape:window-y="24"
     inkscape:window-maximized="1"
     inkscape:current-layer="layer1" />
  <defs
     id="defs1">
    <inkscape:path-effect
       effect="fillet_chamfer"
       id="path-effect6"
       is_visible="true"
       lpeversion="1"
       nodesatellites_param="F,0,0,1,0,1.7577775,0,1 @ F,0,0,1,0,1.4444444,0,1 @ F,0,0,1,0,1.4444444,0,1 @ F,0,0,1,0,1.4444444,0,1"
       radius="1.4444444"
       unit="px"
       method="auto"
       mode="F"
       chamfer_steps="1"
       flexible="false"
       use_knot_distance="true"
       apply_no_radius="true"
       apply_with_radius="true"
       only_selected="false"
       hide_knots="false" />
    <inkscape:path-effect
       effect="fillet_chamfer"
       id="path-effect1"
       is_visible="true"
       lpeversion="1"
       nodesatellites_param="F,0,0,1,0,0,0,1 @ F,0,0,1,0,0,0,1 @ F,0,0,1,0,0,0,1 @ F,0,0,1,0,0,0,1 @ F,0,0,1,0,0,0,1 @ F,0,0,1,0,0,0,1 @ F,0,0,1,0,0,0,1 @ F,0,0,1,0,0,0,1"
       radius="0"
       unit="px"
       method="auto"
       mode="F"
       chamfer_steps="1"
       flexible="false"
       use_knot_distance="true"
       apply_no_radius="true"
       apply_with_radius="true"
       only_selected="false"
       hide_knots="false" />
  </defs>
  <g
     inkscape:label="Layer 1"
     inkscape:groupmode="layer"
     id="layer1">
    <path
       style="fill:#1a5fb4;fill-opacity:1;stroke:none;stroke-width:0.990632;stroke-linecap:round;stroke-linejoin:round;paint-order:markers fill stroke"
       id="rect1"
       width="139.00937"
       height="84.009369"
       x="5.4953184"
       y="7.9953156"
       inkscape:path-effect="#path-effect1"
       sodipodi:type="rect"
       d="M 10.866222,7.9953156 H 139.13378 c 2.97548,0 5.37091,2.3954234 5.37091,5.3709034 v 73.267562 c 0,2.97548 -2.39543,5.370903 -5.37091,5.370903 H 10.866222 c -2.9754806,0 -5.3709036,-2.395423 -5.3709036,-5.370903 V 13.366219 c 0,-2.97548 2.395423,-5.3709034 5.3709036,-5.3709034 z"
       ry="5.3709035" />
    <path
       id="rect2"
       style="fill:#ffffff;fill-opacity:1;stroke:none;stroke-width:1.02073;stroke-linecap:round;stroke-linejoin:round;paint-order:markers fill stroke;opacity:0.8"
       d="m 28.999999,13.706055 a 8.2929897,8.2929897 0 0 0 -8.292969,8.292968 8.2929897,8.2929897 0 0 0 2.300781,5.707031 v 44.587892 a 8.2929897,8.2929897 0 0 0 -2.300781,5.705077 8.2929897,8.2929897 0 0 0 8.292969,8.294923 8.2929897,8.2929897 0 0 0 8.292968,-8.294923 8.2929897,8.2929897 0 0 0 -2.285156,-5.710938 v -15.8125 L 52.431639,39.051757 h 7.783203 a 8.2929897,8.2929897 0 0 0 5.697266,2.292969 8.2929897,8.2929897 0 0 0 8.292969,-8.292969 8.2929897,8.2929897 0 0 0 -8.292969,-8.292968 8.2929897,8.2929897 0 0 0 -5.697266,2.292968 h -12.21875 a 0.98793181,1.7577775 0 0 0 -0.04297,0.0098 c -0.33385,0.02408 -0.661628,0.157715 -0.917968,0.414062 l -12.027343,12.02731 v -11.8125 a 8.2929897,8.2929897 0 0 0 2.285156,-5.691406 8.2929897,8.2929897 0 0 0 -8.292968,-8.292968 z m 60,0 a 8.2929897,8.2929897 0 0 0 -8.292969,8.292968 8.2929897,8.2929897 0 0 0 2.300781,5.707031 v 44.587892 a 8.2929897,8.2929897 0 0 0 -2.300781,5.705077 8.2929897,8.2929897 0 0 0 8.292969,8.294923 8.2929897,8.2929897 0 0 0 8.292968,-8.294923 8.2929897,8.2929897 0 0 0 -2.285156,-5.710938 V 60.713867 l 8.480469,8.478516 0.0117,-0.01172 9.23633,9.236327 A 8.2929897,8.2929897 0 0 0 121,86.293946 8.2929897,8.2929897 0 0 0 129.29297,77.999023 8.2929897,8.2929897 0 0 0 121,69.706054 a 8.2929897,8.2929897 0 0 0 -0.006,0 l -9.00977,-9.009765 8.44336,-8.44336 A 8.2929897,8.2929897 0 0 0 121,52.293945 8.2929897,8.2929897 0 0 0 129.29297,43.999023 8.2929897,8.2929897 0 0 0 121,35.706054 a 8.2929897,8.2929897 0 0 0 -8.2168,7.21875 l -9.28516,9.285156 -8.490229,-8.490234 V 27.690429 a 8.2929897,8.2929897 0 0 0 2.285156,-5.691406 8.2929897,8.2929897 0 0 0 -8.292968,-8.292968 z m -60,2.765624 a 5.5286598,5.5286598 0 0 1 5.529296,5.527344 5.5286598,5.5286598 0 0 1 -5.529296,5.529297 5.5286598,5.5286598 0 0 1 -5.529297,-5.529297 5.5286598,5.5286598 0 0 1 5.529297,-5.527344 z m 60,0 a 5.5286598,5.5286598 0 0 1 5.529296,5.527344 5.5286598,5.5286598 0 0 1 -5.529296,5.529297 5.5286598,5.5286598 0 0 1 -5.529297,-5.529297 5.5286598,5.5286598 0 0 1 5.529297,-5.527344 z M 65.912108,27.52246 a 5.5286598,5.5286598 0 0 1 5.529297,5.529297 5.5286598,5.5286598 0 0 1 -5.529297,5.529297 5.5286598,5.5286598 0 0 1 -5.527344,-5.529297 5.5286598,5.5286598 0 0 1 5.527344,-5.529297 z M 121,38.471679 a 5.5286598,5.5286598 0 0 1 5.52929,5.527344 A 5.5286598,5.5286598 0 0 1 121,49.52832 5.5286598,5.5286598 0 0 1 115.4707,43.999023 5.5286598,5.5286598 0 0 1 121,38.471679 Z m -25.992189,22.21875 0.0059,0.0059 -0.0059,0.0059 z m -66.007812,11.78125 a 5.5286598,5.5286598 0 0 1 5.529296,5.527344 5.5286598,5.5286598 0 0 1 -5.529296,5.529297 5.5286598,5.5286598 0 0 1 -5.529297,-5.529297 5.5286598,5.5286598 0 0 1 5.529297,-5.527344 z m 60,0 a 5.5286598,5.5286598 0 0 1 5.529296,5.527344 5.5286598,5.5286598 0 0 1 -5.529296,5.529297 5.5286598,5.5286598 0 0 1 -5.529297,-5.529297 5.5286598,5.5286598 0 0 1 5.529297,-5.527344 z m 32.000001,0 a 5.5286598,5.5286598 0 0 1 5.52929,5.527344 A 5.5286598,5.5286598 0 0 1 121,83.52832 5.5286598,5.5286598 0 0 1 115.4707,77.999023 5.5286598,5.5286598 0 0 1 121,72.471679 Z" />
  </g>
</svg>
