<?xml version="1.0" encoding="UTF-8" standalone="no"?>
<!-- Created with Inkscape (http://www.inkscape.org/) -->

<svg
   width="512"
   height="512"
   viewBox="0 0 512 512"
   version="1.1"
   id="svg5"
   inkscape:version="1.1.2 (0a00cf5339, 2022-02-04, custom)"
   sodipodi:docname="Rohrkabel-Logo.svg"
   xmlns:inkscape="http://www.inkscape.org/namespaces/inkscape"
   xmlns:sodipodi="http://sodipodi.sourceforge.net/DTD/sodipodi-0.dtd"
   xmlns="http://www.w3.org/2000/svg"
   xmlns:svg="http://www.w3.org/2000/svg">
  <sodipodi:namedview
     id="namedview7"
     pagecolor="#505050"
     bordercolor="#ffffff"
     borderopacity="1"
     inkscape:pageshadow="0"
     inkscape:pageopacity="0"
     inkscape:pagecheckerboard="1"
     inkscape:document-units="px"
     showgrid="false"
     inkscape:zoom="1.265625"
     inkscape:cx="231.11111"
     inkscape:cy="222.02469"
     inkscape:window-width="1920"
     inkscape:window-height="1052"
     inkscape:window-x="0"
     inkscape:window-y="28"
     inkscape:window-maximized="1"
     inkscape:current-layer="layer1" />
  <defs
     id="defs2" />
  <g
     inkscape:label="Layer 1"
     inkscape:groupmode="layer"
     id="layer1">
    <rect
       style="fill:#1a5fb4;fill-opacity:1;stroke-width:10.9872;stroke-linecap:round;stroke-linejoin:round;paint-order:markers fill stroke"
       id="rect857"
       width="512"
       height="512"
       x="-512"
       y="0"
       transform="rotate(-90)"
       ry="87.703705" />
    <path
       id="path846"
       style="opacity:0.5;fill:#ffffff;stroke-width:7.68704;stroke-linecap:round;stroke-linejoin:round;paint-order:markers fill stroke"
       d="M 46 50 A 16 16 0 0 0 30 66 A 16 16 0 0 0 35.962891 78.167969 L 35.962891 73.412109 A 12.508115 12.508115 0 0 1 33.492188 66 A 12.508115 12.508115 0 0 1 46 53.492188 A 12.508115 12.508115 0 0 1 58.507812 66 A 12.508115 12.508115 0 0 1 55.962891 73.509766 L 55.962891 78.216797 A 16 16 0 0 0 62 66 A 16 16 0 0 0 46 50 z " />
    <path
       id="path846-5"
       style="opacity:0.5;fill:#ffffff;stroke-width:7.68704;stroke-linecap:round;stroke-linejoin:round;paint-order:markers fill stroke"
       d="M 328.39453 50 A 16 16 0 0 0 312.39453 66 A 16 16 0 0 0 318.41992 78.46875 L 318.41992 74.271484 L 318.83203 74.271484 A 12.641975 12.641975 0 0 1 315.75391 66.005859 A 12.641975 12.641975 0 0 1 328.39453 53.365234 A 12.641975 12.641975 0 0 1 341.03711 66.005859 A 12.641975 12.641975 0 0 1 337.95898 74.271484 L 338.41992 74.271484 L 338.41992 78.431641 A 16 16 0 0 0 344.39453 66 A 16 16 0 0 0 328.39453 50 z " />
    <path
       id="path846-5-3"
       style="opacity:0.5;fill:#ffffff;stroke-width:7.68704;stroke-linecap:round;stroke-linejoin:round;paint-order:markers fill stroke"
       d="M 318.41992 433.52734 A 16 16 0 0 0 312 446 A 16 16 0 0 0 328 462 A 16 16 0 0 0 344 446 A 16 16 0 0 0 338.41992 433.86523 L 338.41992 439.08203 A 12.508115 12.508115 0 0 1 340.50781 446 A 12.508115 12.508115 0 0 1 328 458.50781 A 12.508115 12.508115 0 0 1 315.49219 446 A 12.508115 12.508115 0 0 1 318.41992 437.97852 L 318.41992 433.52734 z " />
    <path
       id="path846-5-3-5"
       style="opacity:0.5;fill:#ffffff;stroke-width:7.68704;stroke-linecap:round;stroke-linejoin:round;paint-order:markers fill stroke"
       d="M 461 246.32031 A 16 16 0 0 0 445 262.32031 A 16 16 0 0 0 445.0957 263.67188 L 448.68164 260.08594 A 12.54321 12.54321 0 0 1 461 249.7793 A 12.54321 12.54321 0 0 1 473.54297 262.32227 A 12.54321 12.54321 0 0 1 462.2793 274.77344 L 458.88281 278.16992 A 16 16 0 0 0 461 278.32031 A 16 16 0 0 0 477 262.32031 A 16 16 0 0 0 461 246.32031 z " />
    <path
       id="path846-5-3-5-6"
       style="opacity:0.5;fill:#ffffff;stroke-width:7.68704;stroke-linecap:round;stroke-linejoin:round;paint-order:markers fill stroke"
       d="M 461 430 A 16 16 0 0 0 458.06836 430.30469 L 461.06055 433.28711 A 12.641975 12.641975 0 0 1 473.64062 445.82812 L 474.99609 447.17969 L 473.25586 448.91406 A 12.641975 12.641975 0 0 1 463.94922 458.18945 L 460.99805 461.13086 L 458.04688 458.18945 A 12.641975 12.641975 0 0 1 448.74414 448.91406 L 445.05469 445.23633 A 16 16 0 0 0 445 446 A 16 16 0 0 0 461 462 A 16 16 0 0 0 477 446 A 16 16 0 0 0 461 430 z " />
    <path
       id="path846-7"
       style="opacity:0.5;fill:#ffffff;stroke-width:7.68704;stroke-linecap:round;stroke-linejoin:round;paint-order:markers fill stroke"
       d="M 263.64258 176.02539 A 16 16 0 0 0 261.21289 176.2207 L 264.48242 179.55859 A 12.508115 12.508115 0 0 1 276.13672 191.45117 L 279.38086 194.76172 A 16 16 0 0 0 279.64258 192.02539 A 16 16 0 0 0 263.64258 176.02539 z M 247.78711 190.03125 A 16 16 0 0 0 247.64258 192.02539 A 16 16 0 0 0 263.64258 208.02539 A 16 16 0 0 0 265.64844 207.88281 L 262.20312 204.43945 A 12.508115 12.508115 0 0 1 251.23828 193.48047 L 247.78711 190.03125 z M 279.3125 195.07422 L 265.71875 207.87695 A 16 16 0 0 0 279.3125 195.07422 z " />
    <path
       id="path846-6"
       style="opacity:0.5;fill:#ffffff;stroke-width:7.68704;stroke-linecap:round;stroke-linejoin:round;paint-order:markers fill stroke"
       d="M 55.962891 433.52148 L 55.962891 438.25781 A 12.592592 12.592592 0 0 1 58.591797 445.95508 A 12.592592 12.592592 0 0 1 46 458.54883 A 12.592592 12.592592 0 0 1 33.408203 445.95508 A 12.592592 12.592592 0 0 1 35.962891 438.40234 L 35.962891 433.83203 A 16 16 0 0 0 30 446 A 16 16 0 0 0 46 462 A 16 16 0 0 0 62 446 A 16 16 0 0 0 55.962891 433.52148 z " />
    <path
       id="rect1987"
       style="opacity:0.5;fill:#ffffff;stroke-width:3.74608;stroke-linecap:round;stroke-linejoin:round;paint-order:markers fill stroke"
       d="M 35.962891 73.058594 L 35.962891 438.625 L 36.042969 438.625 A 12.592592 12.592592 0 0 1 46 433.36328 A 12.592592 12.592592 0 0 1 55.962891 438.29102 L 55.962891 73.169922 A 12.508115 12.508115 0 0 1 46 78.507812 A 12.508115 12.508115 0 0 1 35.962891 73.058594 z " />
    <path
       id="rect2208"
       style="opacity:0.5;fill:#ffffff;stroke-width:6.79444;stroke-linecap:round;stroke-linejoin:round;paint-order:markers fill stroke"
       d="m 111.45703,125.15234 -55.494139,55.49414 v 28.28516 l 69.634769,-69.63672 z m -75.494139,75.49414 -0.03624,7.5918 0.03624,7.5918 z"
       sodipodi:nodetypes="ccccccccc" />
    <path
       id="rect2312"
       style="opacity:0.5;fill:#ffffff;stroke-width:6.30208;stroke-linecap:round;stroke-linejoin:round;paint-order:markers fill stroke"
       d="M 111.45703 125.15234 L 125.59766 139.29492 L 119.74023 145.15234 L 211.16602 145.15234 L 211.16602 125.15234 L 111.45703 125.15234 z " />
    <path
       id="rect2312-0"
       style="opacity:0.5;fill:#ffffff;stroke-width:6.30208;stroke-linecap:round;stroke-linejoin:round;paint-order:markers fill stroke"
       d="M 211.16797 125.15234 L 211.16602 145.15234 L 202.88281 145.15234 L 251.33789 193.58008 A 12.508115 12.508115 0 0 1 251.13477 192.03516 A 12.508115 12.508115 0 0 1 263.64258 179.52734 A 12.508115 12.508115 0 0 1 264.48828 179.56445 L 211.16797 125.15234 z M 276.125 191.4375 A 12.508115 12.508115 0 0 1 276.15039 192.03516 A 12.508115 12.508115 0 0 1 263.64258 204.54297 A 12.508115 12.508115 0 0 1 262.10352 204.33984 L 265.67969 207.91406 L 279.50781 194.89062 L 276.125 191.4375 z " />
    <path
       id="rect2453"
       style="opacity:0.5;fill:#ffffff;stroke-width:6.64611;stroke-linecap:round;stroke-linejoin:round;paint-order:markers fill stroke"
       d="M 318.41992 74.271484 L 318.41992 438.25781 A 12.508115 12.508115 0 0 1 328 433.49219 A 12.508115 12.508115 0 0 1 338.41992 439.13867 L 338.41992 74.271484 L 337.7832 74.271484 A 12.641975 12.641975 0 0 1 328.39453 78.648438 A 12.641975 12.641975 0 0 1 319.00586 74.271484 L 318.41992 74.271484 z " />
    <path
       id="rect2455"
       style="opacity:0.5;fill:#ffffff;stroke-width:8.83588;stroke-linecap:round;stroke-linejoin:round;paint-order:markers fill stroke"
       d="M 448.83594 259.93164 L 338.41992 370.34766 L 338.41992 398.63281 L 462.41016 274.64258 A 12.54321 12.54321 0 0 1 461 274.86523 A 12.54321 12.54321 0 0 1 448.45703 262.32227 A 12.54321 12.54321 0 0 1 448.83594 259.93164 z " />
    <path
       id="rect2455-1"
       style="opacity:0.5;fill:#ffffff;stroke-width:7.85536;stroke-linecap:round;stroke-linejoin:round;paint-order:markers fill stroke"
       d="M 382.28906 354.76367 L 368.31445 368.73828 L 448.75195 448.92383 A 12.641975 12.641975 0 0 1 448.35742 445.92578 A 12.641975 12.641975 0 0 1 461 433.28516 A 12.641975 12.641975 0 0 1 461.06055 433.28906 L 382.28906 354.76367 z M 473.63672 445.82617 A 12.641975 12.641975 0 0 1 473.64258 445.92578 A 12.641975 12.641975 0 0 1 473.24805 448.92188 L 474.99609 447.17969 L 473.63672 445.82617 z M 458.03711 458.17969 L 460.99805 461.13086 L 463.95898 458.17969 A 12.641975 12.641975 0 0 1 461 458.56836 A 12.641975 12.641975 0 0 1 458.03711 458.17969 z " />
  </g>
</svg>
